<svg width="136" height="28" viewBox="0 0 136 28" fill="none" xmlns="http://www.w3.org/2000/svg">
<path d="M0 9.33545V14.2599C1.69536 14.2588 3.37431 14.5894 4.94079 15.233C6.50727 15.8766 7.93052 16.8204 9.12912 18.0106C10.3274 19.2002 11.2777 20.6127 11.9257 22.1672C12.5737 23.7217 12.9067 25.3877 12.9056 27.0699H17.8633C17.8588 22.3684 15.9755 17.8607 12.6265 14.5359C9.27759 11.2111 4.7366 9.34082 0 9.33545H0Z" fill="white"/>
<path d="M24.7944 0.469727H16.9375C20.9121 2.96987 24.28 6.31228 26.7994 10.2571V2.45843C26.799 1.93086 26.5876 1.42503 26.2116 1.05212C25.8357 0.679204 25.3259 0.469726 24.7944 0.469727V0.469727Z" fill="white"/>
<path d="M4.93657 0.469727H0V4.90353C5.92089 4.90964 11.5975 7.24694 15.7843 11.4026C19.9711 15.5582 22.326 21.1927 22.3323 27.0697H26.7985V22.1697C25.7887 16.7843 23.1596 11.8286 19.2572 7.95518C15.3548 4.08171 10.3622 1.47204 4.93657 0.469727V0.469727Z" fill="white"/>
<path d="M38.9494 3.39795H35.8027V19.1409H38.9494V3.39795Z" fill="white"/>
<path d="M50.5199 10.2186C49.996 9.74594 49.3829 9.38119 48.7159 9.14551C47.2832 8.64616 45.7219 8.64616 44.2892 9.14551C43.622 9.38102 43.0086 9.74579 42.4846 10.2186C41.9707 10.6889 41.5601 11.2594 41.2786 11.8944C40.9877 12.5872 40.8379 13.3303 40.8379 14.0809C40.8379 14.8314 40.9877 15.5745 41.2786 16.2673C41.5591 16.9042 41.9697 17.4762 42.4846 17.9473C43.0076 18.4205 43.6207 18.7851 44.2878 19.0197C45.7203 19.52 47.282 19.52 48.7145 19.0197C49.3818 18.7851 49.9951 18.4205 50.5185 17.9473C51.0331 17.4761 51.4437 16.904 51.7244 16.2673C52.0153 15.5745 52.1651 14.8314 52.1651 14.0809C52.1651 13.3303 52.0153 12.5872 51.7244 11.8944C51.4432 11.2596 51.0331 10.6891 50.5199 10.2186ZM48.3591 15.9348C47.8495 16.3904 47.188 16.6425 46.5022 16.6425C45.8164 16.6425 45.1549 16.3904 44.6454 15.9348C44.2171 15.41 43.9834 14.7552 43.9834 14.0798C43.9834 13.4045 44.2171 12.7496 44.6454 12.2248C45.1549 11.7692 45.8164 11.5171 46.5022 11.5171C47.188 11.5171 47.8495 11.7692 48.3591 12.2248C48.7874 12.7496 49.021 13.4045 49.021 14.0798C49.021 14.7552 48.7874 15.41 48.3591 15.9348V15.9348Z" fill="white"/>
<path d="M61.8182 10.3538H61.7787C61.6332 10.1511 61.4642 9.96592 61.2752 9.80224C61.0462 9.60119 60.7927 9.42952 60.5206 9.29124C59.8328 8.94094 59.0693 8.76242 58.2963 8.77114C57.6189 8.75936 56.949 8.91322 56.3457 9.21914C55.7835 9.50809 55.2871 9.9086 54.8873 10.3958C54.4796 10.898 54.1668 11.4693 53.9641 12.0821C53.7486 12.7135 53.6388 13.3756 53.639 14.0421C53.6311 14.7576 53.7519 15.4688 53.9959 16.1421C54.2169 16.7566 54.5615 17.3201 55.0086 17.7983C55.4541 18.2664 55.9947 18.635 56.5946 18.8798C57.2469 19.1437 57.946 19.2747 58.6504 19.2648C59.1713 19.2559 59.6864 19.1537 60.1708 18.9631C60.714 18.7586 61.1847 18.4 61.5241 17.932H61.5665V18.912C61.5783 19.2389 61.524 19.5648 61.4069 19.8705C61.2897 20.1763 61.1121 20.4556 60.8845 20.6921C60.5957 20.9458 60.258 21.1386 59.8919 21.2589C59.5259 21.3792 59.139 21.4246 58.7547 21.3921C58.1455 21.3989 57.5416 21.2782 56.9825 21.0379C56.4262 20.7912 55.9071 20.4689 55.4402 20.0803L53.699 22.6598C54.4107 23.2288 55.2426 23.6311 56.1327 23.8365C57.0135 24.0376 57.9144 24.1388 58.8182 24.1382C60.8041 24.1382 62.283 23.6419 63.2548 22.6493C64.2266 21.6567 64.7127 20.2026 64.7132 18.2869V9.02104H61.8218L61.8182 10.3538ZM61.6292 14.9661C61.5051 15.2625 61.3232 15.5315 61.094 15.7578C60.8606 15.9887 60.587 16.1755 60.2865 16.3094C59.9744 16.447 59.6367 16.5181 59.2953 16.5181C58.9538 16.5181 58.6162 16.447 58.3041 16.3094C58.0076 16.1736 57.7375 15.9869 57.5065 15.7578C57.2763 15.5296 57.0937 15.2585 56.9691 14.9602C56.8445 14.6618 56.7803 14.342 56.7803 14.019C56.7803 13.6961 56.8445 13.3763 56.9691 13.0779C57.0937 12.7795 57.2763 12.5085 57.5065 12.2802C57.7377 12.0512 58.0077 11.8642 58.3041 11.7279C58.6163 11.5908 58.9539 11.52 59.2953 11.52C59.6367 11.52 59.9743 11.5908 60.2865 11.7279C60.5869 11.8623 60.8605 12.0494 61.094 12.2802C61.4401 12.6256 61.6757 13.0649 61.7709 13.5428C61.8662 14.0207 61.8169 14.516 61.6292 14.9661V14.9661Z" fill="white"/>
<path d="M76.5336 10.2186C76.0097 9.74594 75.3965 9.38119 74.7296 9.14551C73.2969 8.64616 71.7356 8.64616 70.3029 9.14551C69.6357 9.38102 69.0222 9.74579 68.4982 10.2186C67.9843 10.6889 67.5738 11.2594 67.2923 11.8944C67.0014 12.5872 66.8516 13.3303 66.8516 14.0809C66.8516 14.8314 67.0014 15.5745 67.2923 16.2673C67.5727 16.9042 67.9834 17.4762 68.4982 17.9473C69.0217 18.4206 69.6353 18.7853 70.3029 19.0197C71.7354 19.52 73.2971 19.52 74.7296 19.0197C75.3969 18.7851 76.0102 18.4205 76.5336 17.9473C77.0484 17.4762 77.4591 16.9042 77.7395 16.2673C78.0304 15.5745 78.1802 14.8314 78.1802 14.0809C78.1802 13.3303 78.0304 12.5872 77.7395 11.8944C77.458 11.2594 77.0474 10.6889 76.5336 10.2186V10.2186ZM74.3727 15.9348C73.8632 16.3904 73.2017 16.6425 72.5159 16.6425C71.8301 16.6425 71.1686 16.3904 70.659 15.9348C70.2308 15.41 69.9971 14.7552 69.9971 14.0798C69.9971 13.4045 70.2308 12.7496 70.659 12.2248C71.1686 11.7692 71.8301 11.5171 72.5159 11.5171C73.2017 11.5171 73.8632 11.7692 74.3727 12.2248C74.801 12.7496 75.0347 13.4045 75.0347 14.0798C75.0347 14.7552 74.801 15.41 74.3727 15.9348Z" fill="white"/>
<path d="M82.3536 9.09082H80.666V19.1407H82.3536V9.09082Z" fill="white"/>
<path d="M81.5099 3.93772C81.3463 3.93464 81.1838 3.96548 81.0328 4.02828C80.8819 4.09107 80.7458 4.18445 80.6333 4.30242C80.4617 4.47414 80.3452 4.69243 80.2984 4.92978C80.2516 5.16713 80.2766 5.41292 80.3703 5.63617C80.464 5.85943 80.6222 6.05015 80.8249 6.18431C81.0277 6.31847 81.2659 6.39006 81.5095 6.39006C81.7532 6.39006 81.9914 6.31847 82.1941 6.18431C82.3969 6.05015 82.5551 5.85943 82.6488 5.63617C82.7425 5.41292 82.7675 5.16713 82.7207 4.92978C82.6739 4.69243 82.5574 4.47414 82.3858 4.30242C82.2734 4.1844 82.1375 4.09098 81.9867 4.02818C81.8358 3.96537 81.6734 3.93456 81.5099 3.93772V3.93772Z" fill="white"/>
<path d="M94.8377 10.3394C94.3629 9.85835 93.7919 9.48134 93.1613 9.23274C92.4693 8.96199 91.7309 8.82719 90.9871 8.83584C90.2865 8.82786 89.5936 8.98247 88.9639 9.28734C88.3436 9.59352 87.7945 10.0248 87.3517 10.5536H87.3066V9.09064H85.6211V24.037H87.3066V17.359H87.3496C87.7078 17.9715 88.23 18.4735 88.8581 18.8094C89.5873 19.2147 90.4126 19.4187 91.2481 19.4002C91.9321 19.4045 92.6098 19.2692 93.2389 19.0026C93.8464 18.7469 94.3948 18.3705 94.8504 17.8966C95.313 17.4124 95.6768 16.8438 95.9216 16.2222C96.4407 14.8663 96.4407 13.3684 95.9216 12.0124C95.6746 11.3895 95.3063 10.821 94.8377 10.3394V10.3394ZM94.2425 15.5894C94.0852 16.027 93.8391 16.4279 93.5194 16.7673C93.1998 17.1068 92.8134 17.3775 92.3842 17.5627C91.4351 17.9485 90.3713 17.9485 89.4223 17.5627C88.9924 17.3775 88.6055 17.1065 88.2855 16.7667C87.9654 16.4269 87.7192 16.0255 87.5619 15.5873C87.2306 14.6349 87.2306 13.5998 87.5619 12.6473C87.7192 12.2092 87.9654 11.8077 88.2855 11.4679C88.6055 11.1281 88.9924 10.8572 89.4223 10.6719C90.3713 10.2861 91.4351 10.2861 92.3842 10.6719C92.814 10.8572 93.201 11.1281 93.521 11.4679C93.841 11.8077 94.0873 12.2092 94.2446 12.6473C94.5758 13.5998 94.5758 14.6349 94.2446 15.5873L94.2425 15.5894Z" fill="white"/>
<path d="M104.811 14.1195C104.491 13.8815 104.134 13.6966 103.753 13.5721C103.336 13.4324 102.91 13.321 102.477 13.2389C102.153 13.1839 101.831 13.1124 101.514 13.0247C101.232 12.9486 100.957 12.8478 100.692 12.7237C100.48 12.6283 100.289 12.4933 100.128 12.3261C99.9912 12.1766 99.9177 11.9806 99.9226 11.7787C99.9193 11.5609 99.9836 11.3473 100.107 11.1669C100.228 10.9887 100.386 10.8386 100.571 10.7266C100.769 10.6078 100.985 10.5209 101.21 10.469C101.441 10.4123 101.678 10.3834 101.916 10.3829C102.368 10.369 102.815 10.4846 103.203 10.7161C103.553 10.9348 103.846 11.2327 104.057 11.5855L105.464 10.6622C105.152 10.052 104.646 9.561 104.024 9.26572C103.398 8.97688 102.714 8.83029 102.023 8.83662C101.555 8.83551 101.089 8.90056 100.639 9.02982C100.208 9.1519 99.7987 9.3409 99.4269 9.58982C99.0713 9.82809 98.7753 10.1439 98.5615 10.5131C98.3402 10.9063 98.2282 11.3508 98.2372 11.8011C98.2195 12.2419 98.3203 12.6794 98.5291 13.0688C98.7196 13.3945 98.9855 13.6705 99.3049 13.8738C99.6574 14.0945 100.04 14.2644 100.44 14.3785C100.873 14.5073 101.328 14.6219 101.803 14.7222C102.078 14.7796 102.345 14.844 102.604 14.9154C102.847 14.9802 103.08 15.0777 103.296 15.2052C103.487 15.3175 103.653 15.4674 103.783 15.6455C103.913 15.8428 103.977 16.0757 103.967 16.3112C103.975 16.5587 103.907 16.8027 103.772 17.0112C103.638 17.2088 103.461 17.3739 103.253 17.4942C103.029 17.6269 102.784 17.7216 102.528 17.7742C102.269 17.8308 102.004 17.8597 101.739 17.8603C101.213 17.8805 100.692 17.7539 100.235 17.4949C99.8148 17.2295 99.445 16.8925 99.1427 16.4995L97.8027 17.5306C98.2175 18.17 98.8063 18.6797 99.5009 19.0006C100.213 19.2811 100.974 19.4163 101.74 19.3982C102.239 19.3986 102.736 19.3411 103.221 19.2267C103.683 19.1208 104.122 18.9355 104.519 18.6793C104.899 18.4293 105.213 18.0934 105.436 17.6993C105.678 17.2521 105.798 16.7495 105.783 16.2419C105.797 15.8055 105.708 15.372 105.524 14.9756C105.356 14.6396 105.112 14.3466 104.811 14.1195V14.1195Z" fill="white"/>
<path d="M116.97 16.7572V9.09082H115.282V13.9908C115.287 14.5191 115.226 15.0459 115.098 15.5588C114.99 15.9985 114.798 16.4137 114.534 16.7824C114.283 17.1252 113.947 17.3986 113.56 17.5769C113.114 17.7733 112.631 17.869 112.143 17.8569C111.814 17.8834 111.482 17.8309 111.177 17.7038C110.872 17.5768 110.603 17.3789 110.391 17.1268C109.985 16.5414 109.787 15.839 109.827 15.1297V9.09082H108.139V15.297C108.134 15.8596 108.21 16.42 108.366 16.9609C108.502 17.4405 108.743 17.8844 109.071 18.2608C109.4 18.6288 109.811 18.9163 110.27 19.1008C110.818 19.313 111.402 19.4153 111.99 19.4018C112.386 19.405 112.779 19.3505 113.159 19.2401C113.501 19.1411 113.828 18.9968 114.132 18.811C114.408 18.6423 114.659 18.4364 114.878 18.1992C115.075 17.9882 115.239 17.7492 115.365 17.4901H115.408C115.408 17.7771 115.416 18.0571 115.43 18.3301C115.445 18.6031 115.452 18.8752 115.451 19.1463H117.053C117.053 18.8164 117.038 18.4512 117.009 18.0508C116.98 17.6504 116.967 17.2192 116.97 16.7572Z" fill="white"/>
<path d="M135.209 11.2925C135.096 10.8062 134.874 10.3515 134.559 9.9625C134.241 9.58609 133.832 9.29687 133.369 9.1225C132.787 8.91393 132.171 8.81563 131.552 8.8327C130.88 8.80357 130.216 8.97973 129.648 9.3374C129.122 9.71208 128.68 10.1912 128.35 10.7444C128.264 10.5722 128.152 10.3753 128.015 10.1536C127.862 9.91425 127.668 9.70339 127.441 9.5306C127.163 9.32084 126.854 9.15551 126.524 9.0406C126.082 8.89292 125.617 8.82373 125.15 8.8362C124.755 8.83296 124.361 8.88745 123.982 8.9979C123.64 9.0969 123.312 9.24123 123.008 9.427C122.732 9.59597 122.481 9.80183 122.262 10.0388C122.065 10.2498 121.901 10.4888 121.775 10.7479H121.732C121.732 10.4609 121.725 10.1823 121.711 9.9079C121.697 9.6335 121.689 9.364 121.689 9.0917H120.088C120.088 9.42163 120.102 9.7868 120.131 10.1872C120.16 10.5876 120.174 11.0172 120.174 11.4759V19.1416H121.863V14.2458C121.858 13.7173 121.919 13.1902 122.047 12.6771C122.155 12.2372 122.346 11.8219 122.611 11.4535C122.862 11.1106 123.197 10.8371 123.584 10.659C124.03 10.4625 124.514 10.3668 125.002 10.379C125.291 10.3545 125.581 10.4064 125.843 10.5293C126.105 10.6523 126.33 10.8419 126.494 11.079C126.856 11.8155 127.014 12.6349 126.949 13.452V19.143H128.633V13.3428C128.628 12.9295 128.698 12.5186 128.839 12.1297C128.964 11.7849 129.156 11.4677 129.403 11.1959C129.637 10.9414 129.92 10.7368 130.236 10.5946C130.555 10.4511 130.902 10.3778 131.253 10.3797C131.67 10.3647 132.084 10.4454 132.465 10.6156C132.764 10.7593 133.024 10.9734 133.221 11.2393C133.411 11.5025 133.544 11.8022 133.611 12.1192C133.683 12.4509 133.72 12.7893 133.719 13.1286V19.1416H135.403V13.0425C135.409 12.4535 135.344 11.8659 135.209 11.2925Z" fill="white"/>
</svg>
