<svg width="109" height="35" viewBox="0 0 109 35" fill="none" xmlns="http://www.w3.org/2000/svg">
<path d="M23.4816 0.398C24.2166 0.663 24.8856 1.049 25.4886 1.555C26.0666 2.085 26.5366 2.748 26.8986 3.543C27.2596 4.339 27.4406 5.255 27.4406 6.291V19.885C27.4406 20.97 27.2596 21.898 26.8986 22.669C26.5366 23.441 26.0666 24.079 25.4886 24.585C24.8856 25.116 24.2166 25.514 23.4816 25.779C22.7466 26.043 22.0056 26.176 21.2586 26.176C20.5106 26.176 19.7696 26.043 19.0346 25.779C18.2996 25.514 17.6426 25.116 17.0646 24.585C16.4616 24.079 15.9796 23.441 15.6186 22.669C15.2566 21.898 15.0756 20.97 15.0756 19.885V6.291C15.0756 5.255 15.2566 4.339 15.6186 3.543C15.9796 2.748 16.4616 2.085 17.0646 1.555C17.6426 1.049 18.2996 0.663 19.0346 0.398C19.7696 0.133 20.5106 0 21.2586 0C22.0056 0 22.7466 0.133 23.4816 0.398Z" fill="#C5010A"/>
<path d="M11.931 20.2103V18.6193H8.243V19.8853C8.243 20.3923 8.171 20.8143 8.026 21.1503C7.882 21.4883 7.701 21.7533 7.484 21.9463C7.243 22.1393 6.983 22.2773 6.706 22.3613C6.429 22.4463 6.17 22.4883 5.929 22.4883C5.085 22.4883 4.501 22.2353 4.176 21.7293C3.85 21.2233 3.687 20.5973 3.687 19.8493V6.6893C3.687 5.8213 3.838 5.1043 4.139 4.5373C4.441 3.9723 5.049 3.6883 5.965 3.6883C6.664 3.6883 7.218 3.9533 7.628 4.4833C8.038 5.0143 8.243 5.6403 8.243 6.3633V7.5933H11.931V6.1473C11.931 5.2553 11.78 4.4293 11.479 3.6703C11.177 2.9103 10.762 2.2543 10.232 1.6993C9.147 0.5663 7.737 0.0003 6.001 0.0003C5.109 0.0003 4.296 0.1503 3.561 0.4523C2.826 0.7543 2.193 1.1693 1.663 1.6993C1.133 2.2303 0.723 2.8563 0.433 3.5793C0.144 4.3033 0 5.0863 0 5.9303V20.1023C0 21.2833 0.186 22.2533 0.56 23.0133C0.933 23.7723 1.41 24.3933 1.988 24.8743C2.567 25.3563 3.218 25.6943 3.941 25.8873C4.664 26.0793 5.374 26.1763 6.074 26.1763C6.893 26.1763 7.659 26.0143 8.369 25.6883C9.08 25.3623 9.701 24.9233 10.232 24.3683C10.762 23.8143 11.177 23.1823 11.479 22.4703C11.78 21.7603 11.931 21.0063 11.931 20.2103Z" fill="#C5010A"/>
<path d="M61.8243 2.0249C62.4513 2.6999 62.8853 3.4899 63.1253 4.3929C63.3673 5.2969 63.4863 6.5209 63.4863 8.0629C63.4863 9.2199 63.4203 10.1959 63.2893 10.9919C63.1563 11.7869 62.8733 12.5349 62.4393 13.2329C61.9343 14.0769 61.2583 14.7339 60.4143 15.2039C59.5703 15.6729 58.4613 15.9089 57.0883 15.9089H55.2083V25.9589H51.5203V0.2169H57.0513C58.0643 0.2169 58.9553 0.3499 59.7273 0.6149C60.4983 0.8799 61.1973 1.3509 61.8243 2.0249Z" fill="#C5010A"/>
<path d="M39.4075 13.848H39.3355L34.5985 0.217H31.0555V25.959H34.7435V10.304H34.8155L38.4325 21.368H40.2765L43.9275 10.304H43.9995V25.959H47.6865V0.217H44.1085L39.4075 13.848Z" fill="#C5010A"/>
<path fill-rule="evenodd" clip-rule="evenodd" d="M7.647 30.553C8.031 30.553 8.367 30.637 8.654 30.807C8.943 30.977 9.167 31.211 9.327 31.513C9.488 31.814 9.568 32.162 9.568 32.556C9.568 32.952 9.488 33.299 9.327 33.601C9.167 33.901 8.943 34.136 8.654 34.305C8.367 34.476 8.031 34.561 7.647 34.561C7.264 34.561 6.927 34.476 6.639 34.305C6.351 34.136 6.126 33.901 5.964 33.601C5.802 33.299 5.721 32.952 5.721 32.556C5.721 32.162 5.802 31.814 5.964 31.513C6.126 31.211 6.351 30.977 6.639 30.807C6.927 30.637 7.264 30.553 7.647 30.553ZM8.342 33.858C8.539 33.74 8.693 33.571 8.804 33.348C8.915 33.126 8.97 32.863 8.97 32.556C8.97 32.25 8.915 31.986 8.804 31.765C8.693 31.543 8.539 31.374 8.342 31.256C8.145 31.138 7.913 31.078 7.647 31.078C7.382 31.078 7.149 31.138 6.949 31.256C6.75 31.374 6.596 31.543 6.487 31.765C6.379 31.986 6.325 32.25 6.325 32.556C6.325 32.863 6.379 33.126 6.487 33.348C6.596 33.571 6.75 33.74 6.949 33.858C7.149 33.975 7.382 34.035 7.647 34.035C7.913 34.035 8.145 33.975 8.342 33.858Z" fill="#C5010A"/>
<path fill-rule="evenodd" clip-rule="evenodd" d="M29.7622 30.553C30.1462 30.553 30.4822 30.637 30.7692 30.807C31.0582 30.977 31.2822 31.211 31.4422 31.513C31.6032 31.814 31.6842 32.162 31.6842 32.556C31.6842 32.952 31.6032 33.299 31.4422 33.601C31.2822 33.901 31.0582 34.136 30.7692 34.305C30.4822 34.476 30.1462 34.561 29.7622 34.561C29.3792 34.561 29.0422 34.476 28.7552 34.305C28.4662 34.136 28.2412 33.901 28.0792 33.601C27.9172 33.299 27.8362 32.952 27.8362 32.556C27.8362 32.162 27.9172 31.814 28.0792 31.513C28.2412 31.211 28.4662 30.977 28.7552 30.807C29.0422 30.637 29.3792 30.553 29.7622 30.553ZM30.4572 33.858C30.6542 33.74 30.8082 33.571 30.9192 33.348C31.0302 33.126 31.0862 32.863 31.0862 32.556C31.0862 32.25 31.0302 31.986 30.9192 31.765C30.8082 31.543 30.6542 31.374 30.4572 31.256C30.2602 31.138 30.0282 31.078 29.7622 31.078C29.4972 31.078 29.2642 31.138 29.0642 31.256C28.8662 31.374 28.7122 31.543 28.6022 31.765C28.4942 31.986 28.4402 32.25 28.4402 32.556C28.4402 32.863 28.4942 33.126 28.6022 33.348C28.7122 33.571 28.8662 33.74 29.0642 33.858C29.2642 33.975 29.4972 34.035 29.7622 34.035C30.0282 34.035 30.2602 33.975 30.4572 33.858Z" fill="#C5010A"/>
<path d="M70.0364 32.8441H71.0884C71.0554 33.2061 70.9404 33.4951 70.7484 33.7131C70.5544 33.9311 70.2654 34.0401 69.8814 34.0401C69.5014 34.0401 69.1974 33.9111 68.9684 33.6521C68.7394 33.3941 68.6254 33.0341 68.6254 32.5731C68.6254 32.1121 68.7404 31.7501 68.9744 31.4881C69.2064 31.2261 69.5254 31.0951 69.9314 31.0951C70.2044 31.0951 70.4284 31.1541 70.6004 31.2731C70.7744 31.3911 70.8904 31.5531 70.9494 31.7601H71.6134C71.5244 31.3821 71.3334 31.0881 71.0384 30.8731C70.7424 30.6591 70.3734 30.5531 69.9314 30.5531C69.5394 30.5531 69.2014 30.6391 68.9154 30.8091C68.6294 30.9821 68.4094 31.2191 68.2544 31.5211C68.0984 31.8231 68.0214 32.1731 68.0214 32.5671C68.0214 32.9671 68.0974 33.3151 68.2484 33.6151C68.3994 33.9121 68.6114 34.1461 68.8854 34.3111C69.1584 34.4781 69.4764 34.5611 69.8424 34.5611C70.1554 34.5611 70.4114 34.5051 70.6064 34.3941C70.8024 34.2831 70.9644 34.1261 71.0944 33.9241L71.1434 34.4941H71.6804V32.3911H70.0364V32.8441Z" fill="#C5010A"/>
<path d="M82.4319 33.5365L80.4889 30.6195H79.9019V34.4945H80.4889V31.5765L82.4319 34.4945H83.0189V30.6195H82.4319V33.5365Z" fill="#C5010A"/>
<path d="M77.4768 34.4947H78.0638V30.6197H77.4768V34.4947Z" fill="#C5010A"/>
<path d="M87.3198 34.4945H84.8558V30.6195H87.3198V31.0955H85.4428V32.3025H87.1538V32.7665H85.4428V34.0175H87.3198V34.4945Z" fill="#C5010A"/>
<path d="M93.9808 32.2796H92.1038V30.6196H91.5168V34.4946H92.1038V32.7606H93.9808V34.4946H94.5678V30.6196H93.9808V32.2796Z" fill="#C5010A"/>
<path d="M98.8676 34.4945H96.4036V30.6195H98.8676V31.0955H96.9906V32.3025H98.7016V32.7665H96.9906V34.0175H98.8676V34.4945Z" fill="#C5010A"/>
<path fill-rule="evenodd" clip-rule="evenodd" d="M103.101 32.4296C103.229 32.2336 103.292 32.0156 103.292 31.7766C103.292 31.5606 103.243 31.3676 103.147 31.1916C103.052 31.0156 102.904 30.8776 102.708 30.7736C102.51 30.6706 102.258 30.6196 101.952 30.6196H100.617V34.4946H101.204V32.9326H101.897L102.649 34.4946H103.331L102.505 32.8496C102.774 32.7656 102.973 32.6256 103.101 32.4296ZM101.918 32.4896H101.204V31.1116H101.913C102.187 31.1116 102.383 31.1736 102.505 31.2976C102.627 31.4216 102.689 31.5866 102.689 31.7936C102.689 31.9996 102.626 32.1676 102.503 32.2966C102.379 32.4256 102.185 32.4896 101.918 32.4896Z" fill="#C5010A"/>
<path d="M107.498 34.4945H105.035V30.6195H107.498V31.0955H105.621V32.3025H107.332V32.7665H105.621V34.0175H107.498V34.4945Z" fill="#C5010A"/>
<path d="M73.4465 30.6195H74.0335V34.0295H75.7945V34.4945H73.4465V30.6195Z" fill="#C5010A"/>
<path d="M35.3934 33.1986L34.0814 30.6196H33.3884V34.4946H33.9754V31.6376L35.1654 33.9406H35.6194L36.8044 31.6326V34.4946H37.3914V30.6196H36.7004L35.3934 33.1986Z" fill="#C5010A"/>
<path fill-rule="evenodd" clip-rule="evenodd" d="M40.5866 30.6198C40.8886 30.6198 41.1396 30.6688 41.3396 30.7708C41.5376 30.8738 41.6866 31.0098 41.7846 31.1868C41.8826 31.3618 41.9316 31.5598 41.9316 31.7818C41.9316 31.9918 41.8846 32.1838 41.7906 32.3608C41.6956 32.5358 41.5496 32.6748 41.3506 32.7778C41.1506 32.8798 40.8956 32.9328 40.5866 32.9328H39.8166V34.4948H39.2296V30.6198H40.5866ZM40.5586 32.4518C40.8356 32.4518 41.0346 32.3908 41.1536 32.2718C41.2726 32.1508 41.3336 31.9888 41.3336 31.7818C41.3336 31.5668 41.2726 31.4008 41.1536 31.2808C41.0346 31.1608 40.8356 31.1008 40.5586 31.1008H39.8166V32.4518H40.5586Z" fill="#C5010A"/>
<path fill-rule="evenodd" clip-rule="evenodd" d="M44.2942 30.6194L42.8672 34.4944H43.4872L43.8182 33.5484H45.4022L45.7352 34.4944H46.3552L44.9372 30.6194H44.2942ZM43.9852 33.0814L44.6102 31.3164L45.2362 33.0814H43.9852Z" fill="#C5010A"/>
<path d="M48.5338 30.6195L50.4778 33.5365V30.6195H51.0648V34.4945H50.4778L48.5338 31.5765V34.4945H47.9478V30.6195H48.5338Z" fill="#C5010A"/>
<path d="M54.1819 32.4896L53.2689 30.6196H52.6049L53.8899 33.0646V34.4946H54.4759V33.0646L55.7479 30.6196H55.0909L54.1819 32.4896Z" fill="#C5010A"/>
<path d="M60.6424 31.0951H59.4964V30.6191H62.3704V31.0951H61.2294V34.4941H60.6424V31.0951Z" fill="#C5010A"/>
<path fill-rule="evenodd" clip-rule="evenodd" d="M64.7273 30.6194L63.2993 34.4944H63.9193L64.2513 33.5484H65.8343L66.1673 34.4944H66.7873L65.3693 30.6194H64.7273ZM64.4173 33.0814L65.0433 31.3164L65.6693 33.0814H64.4173Z" fill="#C5010A"/>
<path fill-rule="evenodd" clip-rule="evenodd" d="M18.6965 31.7766C18.6965 32.0156 18.6335 32.2336 18.5055 32.4296C18.3775 32.6256 18.1795 32.7656 17.9105 32.8496L18.7355 34.4946H18.0545L17.3015 32.9326H16.6085V34.4946H16.0215V30.6196H17.3565C17.6635 30.6196 17.9145 30.6706 18.1125 30.7736C18.3095 30.8776 18.4565 31.0156 18.5525 31.1916C18.6485 31.3676 18.6965 31.5606 18.6965 31.7766ZM16.6085 32.4896H17.3235C17.5895 32.4896 17.7835 32.4256 17.9075 32.2966C18.0315 32.1676 18.0935 31.9996 18.0935 31.7936C18.0935 31.5866 18.0325 31.4216 17.9105 31.2976C17.7885 31.1736 17.5915 31.1116 17.3175 31.1116H16.6085V32.4896Z" fill="#C5010A"/>
<path d="M24.6082 31.0785C24.8932 31.0785 25.1202 31.1445 25.2892 31.2785C25.4592 31.4105 25.5692 31.5895 25.6222 31.8145H26.2742C26.1982 31.4155 26.0152 31.1055 25.7262 30.8845C25.4392 30.6635 25.0682 30.5535 24.6132 30.5535C24.2312 30.5535 23.8992 30.6375 23.6202 30.8075C23.3412 30.9765 23.1272 31.2115 22.9752 31.5135C22.8242 31.8135 22.7492 32.1635 22.7492 32.5615C22.7492 32.9575 22.8242 33.3055 22.9752 33.6055C23.1272 33.9055 23.3412 34.1405 23.6202 34.3075C23.8992 34.4755 24.2312 34.5605 24.6132 34.5605C25.0682 34.5605 25.4392 34.4515 25.7262 34.2335C26.0152 34.0165 26.1982 33.7165 26.2742 33.3315H25.6222C25.5692 33.5495 25.4592 33.7215 25.2892 33.8465C25.1202 33.9725 24.8932 34.0345 24.6082 34.0345C24.2212 34.0345 23.9142 33.9025 23.6902 33.6415C23.4652 33.3805 23.3532 33.0195 23.3532 32.5615C23.3532 32.1005 23.4652 31.7375 23.6902 31.4745C23.9142 31.2105 24.2212 31.0785 24.6082 31.0785Z" fill="#C5010A"/>
<path d="M13.6302 33.0443C13.6302 33.3833 13.5492 33.6323 13.3872 33.7903C13.2252 33.9503 13.0072 34.0293 12.7342 34.0293C12.4562 34.0293 12.2372 33.9503 12.0752 33.7903C11.9132 33.6323 11.8312 33.3833 11.8312 33.0443V30.6193H11.2442V33.0383C11.2442 33.3863 11.3112 33.6713 11.4412 33.8963C11.5712 34.1213 11.7492 34.2883 11.9722 34.3973C12.1952 34.5063 12.4452 34.5613 12.7232 34.5613C12.9962 34.5613 13.2462 34.5063 13.4722 34.3973C13.6992 34.2883 13.8802 34.1213 14.0162 33.8963C14.1512 33.6713 14.2172 33.3863 14.2172 33.0383V30.6193H13.6302V33.0443Z" fill="#C5010A"/>
<path d="M69.346 0.2171L63.596 25.9591H67.283L68.369 20.4281H73.395L74.479 25.9591H78.166L72.418 0.2171H69.346Z" fill="#C5010A"/>
<path d="M89.3748 0.2171H93.0628V25.9591H89.5918L83.9518 10.4851H83.8788V25.9591H80.1918V0.2171H83.7348L89.3028 15.7281H89.3748V0.2171Z" fill="#C5010A"/>
<path d="M105.03 0.2171L102.065 10.4481H101.993L99.0276 0.2171H95.1236L100.184 15.0761V25.9591H103.872V15.0761L108.934 0.2171H105.03Z" fill="#C5010A"/>
<path d="M2.1 30.6196L3.013 32.4896L3.922 30.6196H4.579L3.307 33.0646V34.4946H2.721V33.0646L1.436 30.6196H2.1Z" fill="#C5010A"/>
</svg>
