<svg width="22" height="22" viewBox="0 0 22 22" fill="none" xmlns="http://www.w3.org/2000/svg">
<path d="M21.1919 14.489L21.1539 13.662L14.6709 12.736L13.3559 15.31C11.9675 14.5283 10.6983 13.5517 9.58689 12.41C8.43248 11.3004 7.4488 10.0259 6.66788 8.62801L9.46789 7.22801L6.66788 0.708008L5.90789 0.818008C4.62075 0.995313 3.42827 1.59296 2.51589 2.51801C-0.657115 5.68701 0.585885 11.9 5.34388 16.657C8.32588 19.638 11.8769 21.239 14.8949 21.238C15.7384 21.2674 16.5793 21.1274 17.3679 20.8263C18.1564 20.5252 18.8766 20.0691 19.4859 19.485C20.1083 18.8208 20.5822 18.0319 20.8764 17.1705C21.1705 16.3092 21.278 15.3951 21.1919 14.489ZM18.0719 18.071C15.7719 20.371 10.5909 19.071 6.75788 15.243C2.92489 11.415 1.62989 6.22901 3.92989 3.92901C4.35862 3.49451 4.88336 3.16672 5.46188 2.97201L6.88189 6.28501L5.77489 6.83801C5.53509 6.95811 5.32175 7.12498 5.14744 7.3288C4.97313 7.53262 4.84137 7.76926 4.75992 8.02478C4.67847 8.28031 4.64899 8.54955 4.6732 8.81664C4.6974 9.08374 4.77482 9.34329 4.90089 9.58001C5.77623 11.1482 6.87696 12.5794 8.16788 13.828C9.41681 15.1045 10.8423 16.1952 12.4009 17.067C12.6411 17.1974 12.905 17.2785 13.177 17.3054C13.4491 17.3324 13.7237 17.3047 13.9849 17.224C14.2403 17.1445 14.4769 17.014 14.6804 16.8404C14.884 16.6668 15.0501 16.4537 15.1689 16.214L15.8159 14.92L19.1829 15.401C19.1445 16.3954 18.7502 17.3429 18.0719 18.071Z" fill="white"/>
</svg>
